<svg width="171" height="45" viewBox="0 0 171 45" fill="none" xmlns="http://www.w3.org/2000/svg">
<path d="M12.5 29C9.69999 27.8 8.00013 25.3334 8.50013 23.5L18.0001 20L21.0001 21L19.0001 32.5C17.3334 32.3333 15.3 30.2 12.5 29Z" fill="#783FC6"/>
<path d="M15 23.5C18 22 19 20.3333 19.5 20L18.5 32.5L17 31.5C17 29.5 15.64 28.48 15 28C13 26.5 13 25.5 11.5 24.5C11.8333 24.3333 13.3875 24.3062 15 23.5Z" fill="white"/>
<g clip-path="url(#clip0_1087_437)">
<path d="M20.9768 14.8604C21.7343 17.6872 19.4803 20.7467 15.9426 21.6946C15.8386 21.7225 15.7345 21.7504 15.6297 21.7719C14.112 22.5338 12.4549 22.9778 10.7595 23.0768C10.6599 23.1035 10.561 23.1366 10.4595 23.1638C6.92188 24.1117 3.4401 22.5891 2.68267 19.7623C2.60146 19.4574 2.55377 19.1445 2.54043 18.8293C2.47493 18.6579 2.41844 18.4833 2.37118 18.306C1.47979 14.9793 3.92871 11.3497 7.98729 9.63543C7.77278 9.1358 7.38902 8.7279 6.90365 8.48363C6.01022 8.01367 8.73085 7.77635 10.2637 7.81036C13.7981 8.14412 14.7284 8.70271 16.1307 9.1902C18.317 9.93863 19.9669 11.4341 20.5062 13.4468C20.551 13.614 20.5875 13.7815 20.6158 13.9503C20.7703 14.239 20.8914 14.5443 20.9768 14.8604Z" fill="#783FC6"/>
<path d="M19.2125 15.5329C19.1906 15.2988 19.1489 15.0671 19.0878 14.8401C18.5595 12.8686 16.722 11.6485 14.9837 12.1143C13.708 12.4561 12.8404 13.6109 12.6779 14.984C12.2209 15.069 11.7552 15.1741 11.2848 15.3001C10.8144 15.4262 10.367 15.5648 9.93311 15.7186C9.10764 14.614 7.7791 14.0485 6.50341 14.3903C4.76519 14.8561 3.78382 16.8315 4.31208 18.8029C4.3715 19.0256 4.44918 19.243 4.54433 19.4529C4.29234 19.9464 4.21085 20.4327 4.33236 20.8862C4.84631 22.8043 8.79293 23.4141 13.1464 22.2476C17.4998 21.0811 20.6127 18.5797 20.0988 16.6616C19.9775 16.209 19.6744 15.8332 19.2125 15.5329ZM7.89162 19.5712C7.46377 19.6859 7.00786 19.6256 6.62416 19.4038C6.24047 19.1819 5.96042 18.8167 5.84564 18.3883C5.8086 18.2513 5.78936 18.1101 5.78839 17.9682C5.78592 17.6557 5.87105 17.3487 6.0341 17.0822C6.19714 16.8157 6.43159 16.6003 6.71082 16.4605C6.99004 16.3207 7.30287 16.2622 7.61379 16.2914C7.92471 16.3206 8.22126 16.4366 8.46979 16.626C8.71833 16.8154 8.90888 17.0707 9.01983 17.363C9.13078 17.6553 9.15767 17.9728 9.09746 18.2795C9.03726 18.5862 8.89236 18.8698 8.67921 19.0981C8.46606 19.3265 8.19321 19.4904 7.89162 19.5712ZM16.2952 17.0089C15.4043 17.2476 14.7177 17.5742 14.6821 17.4411C14.6633 17.3711 14.8457 17.2547 15.1536 17.1271C15.5047 16.9848 15.8646 16.8654 16.2312 16.7699C17.0041 16.5628 17.673 16.4708 17.8559 16.5382C17.8671 16.5402 17.8775 16.5451 17.8863 16.5522C17.8951 16.5594 17.902 16.5686 17.9063 16.5791C17.9415 16.7104 17.1862 16.7702 16.2952 17.0089Z" fill="white"/>
<path d="M10.5847 19.2906C10.5769 19.2971 10.5709 19.3056 10.5673 19.3151C10.5637 19.3246 10.5626 19.335 10.5642 19.345C10.5657 19.3551 10.5699 19.3646 10.5762 19.3726C10.5825 19.3806 10.5908 19.3868 10.6003 19.3906L12.7229 20.1355C12.7544 20.142 12.7871 20.141 12.8182 20.1327C12.8493 20.1243 12.878 20.1089 12.9021 20.0875C12.9676 20.0239 13.7665 18.9523 13.9733 18.6745C13.9787 18.6669 13.9823 18.6582 13.9838 18.6489C13.9853 18.6397 13.9846 18.6302 13.9817 18.6213C13.9789 18.6124 13.974 18.6043 13.9674 18.5976C13.9609 18.5909 13.9529 18.5859 13.944 18.5829L12.9717 18.2523C12.8613 18.2144 12.7425 18.2085 12.6289 18.2353L11.7757 18.4367C11.689 18.4574 11.6078 18.4965 11.5374 18.5512L10.5847 19.2906Z" fill="#783FC6"/>
</g>
<path d="M32.02 11.85V16.53H23.56V20.25H29.8V24.72H23.56V33H17.68V11.85H32.02ZM50.5764 24.39C50.5764 24.85 50.5464 25.31 50.4864 25.77H39.3564C39.4164 26.69 39.6664 27.38 40.1064 27.84C40.5664 28.28 41.1464 28.5 41.8464 28.5C42.8264 28.5 43.5264 28.06 43.9464 27.18H50.2164C49.9564 28.34 49.4464 29.38 48.6864 30.3C47.9464 31.2 47.0064 31.91 45.8664 32.43C44.7264 32.95 43.4664 33.21 42.0864 33.21C40.4264 33.21 38.9464 32.86 37.6464 32.16C36.3664 31.46 35.3564 30.46 34.6164 29.16C33.8964 27.86 33.5364 26.33 33.5364 24.57C33.5364 22.81 33.8964 21.29 34.6164 20.01C35.3364 18.71 36.3364 17.71 37.6164 17.01C38.9164 16.31 40.4064 15.96 42.0864 15.96C43.7464 15.96 45.2164 16.3 46.4964 16.98C47.7764 17.66 48.7764 18.64 49.4964 19.92C50.2164 21.18 50.5764 22.67 50.5764 24.39ZM44.5764 22.92C44.5764 22.2 44.3364 21.64 43.8564 21.24C43.3764 20.82 42.7764 20.61 42.0564 20.61C41.3364 20.61 40.7464 20.81 40.2864 21.21C39.8264 21.59 39.5264 22.16 39.3864 22.92H44.5764ZM69.0627 24.39C69.0627 24.85 69.0327 25.31 68.9727 25.77H57.8427C57.9027 26.69 58.1527 27.38 58.5927 27.84C59.0527 28.28 59.6327 28.5 60.3327 28.5C61.3127 28.5 62.0127 28.06 62.4327 27.18H68.7027C68.4427 28.34 67.9327 29.38 67.1727 30.3C66.4327 31.2 65.4927 31.91 64.3527 32.43C63.2127 32.95 61.9527 33.21 60.5727 33.21C58.9127 33.21 57.4327 32.86 56.1327 32.16C54.8527 31.46 53.8427 30.46 53.1027 29.16C52.3827 27.86 52.0227 26.33 52.0227 24.57C52.0227 22.81 52.3827 21.29 53.1027 20.01C53.8227 18.71 54.8227 17.71 56.1027 17.01C57.4027 16.31 58.8927 15.96 60.5727 15.96C62.2327 15.96 63.7027 16.3 64.9827 16.98C66.2627 17.66 67.2627 18.64 67.9827 19.92C68.7027 21.18 69.0627 22.67 69.0627 24.39ZM63.0627 22.92C63.0627 22.2 62.8227 21.64 62.3427 21.24C61.8627 20.82 61.2627 20.61 60.5427 20.61C59.8227 20.61 59.2327 20.81 58.7727 21.21C58.3127 21.59 58.0127 22.16 57.8727 22.92H63.0627ZM70.5091 24.57C70.5091 22.83 70.8191 21.31 71.4391 20.01C72.0791 18.71 72.9491 17.71 74.0491 17.01C75.1491 16.31 76.3691 15.96 77.7091 15.96C78.7891 15.96 79.7491 16.19 80.5891 16.65C81.4491 17.09 82.1191 17.7 82.5991 18.48V10.8H88.5091V33H82.5991V30.66C82.1391 31.44 81.4891 32.06 80.6491 32.52C79.8091 32.98 78.8191 33.21 77.6791 33.21C76.3391 33.21 75.1191 32.86 74.0191 32.16C72.9391 31.46 72.0791 30.46 71.4391 29.16C70.8191 27.84 70.5091 26.31 70.5091 24.57ZM82.6291 24.57C82.6291 23.49 82.3291 22.64 81.7291 22.02C81.1491 21.4 80.4291 21.09 79.5691 21.09C78.6891 21.09 77.9591 21.4 77.3791 22.02C76.7991 22.62 76.5091 23.47 76.5091 24.57C76.5091 25.65 76.7991 26.51 77.3791 27.15C77.9591 27.77 78.6891 28.08 79.5691 28.08C80.4291 28.08 81.1491 27.77 81.7291 27.15C82.3291 26.53 82.6291 25.67 82.6291 24.57Z" fill="white"/>
<path d="M105.36 22.14C106.6 22.42 107.58 23.04 108.3 24C109.04 24.94 109.41 26.02 109.41 27.24C109.41 29.04 108.79 30.45 107.55 31.47C106.31 32.49 104.57 33 102.33 33H91.8597V11.85H102C104.16 11.85 105.85 12.33 107.07 13.29C108.31 14.25 108.93 15.6 108.93 17.34C108.93 18.58 108.6 19.62 107.94 20.46C107.3 21.28 106.44 21.84 105.36 22.14ZM97.7397 20.25H100.71C102.19 20.25 102.93 19.64 102.93 18.42C102.93 17.16 102.19 16.53 100.71 16.53H97.7397V20.25ZM101.16 28.26C102.64 28.26 103.38 27.64 103.38 26.4C103.38 25.76 103.18 25.27 102.78 24.93C102.4 24.59 101.85 24.42 101.13 24.42H97.7397V28.26H101.16ZM111.027 24.57C111.027 22.83 111.337 21.31 111.957 20.01C112.597 18.71 113.457 17.71 114.537 17.01C115.637 16.31 116.857 15.96 118.197 15.96C119.357 15.96 120.357 16.19 121.197 16.65C122.037 17.11 122.687 17.73 123.147 18.51V16.17H129.027V33H123.147V30.66C122.687 31.44 122.027 32.06 121.167 32.52C120.327 32.98 119.337 33.21 118.197 33.21C116.857 33.21 115.637 32.86 114.537 32.16C113.457 31.46 112.597 30.46 111.957 29.16C111.337 27.84 111.027 26.31 111.027 24.57ZM123.147 24.57C123.147 23.49 122.847 22.64 122.247 22.02C121.667 21.4 120.947 21.09 120.087 21.09C119.207 21.09 118.477 21.4 117.897 22.02C117.317 22.62 117.027 23.47 117.027 24.57C117.027 25.65 117.317 26.51 117.897 27.15C118.477 27.77 119.207 28.08 120.087 28.08C120.947 28.08 121.667 27.77 122.247 27.15C122.847 26.53 123.147 25.67 123.147 24.57ZM131.417 24.57C131.417 22.83 131.777 21.31 132.497 20.01C133.217 18.71 134.217 17.71 135.497 17.01C136.797 16.31 138.277 15.96 139.937 15.96C142.077 15.96 143.877 16.55 145.337 17.73C146.797 18.89 147.737 20.52 148.157 22.62H141.917C141.557 21.52 140.857 20.97 139.817 20.97C139.077 20.97 138.487 21.28 138.047 21.9C137.627 22.5 137.417 23.39 137.417 24.57C137.417 25.75 137.627 26.65 138.047 27.27C138.487 27.89 139.077 28.2 139.817 28.2C140.877 28.2 141.577 27.65 141.917 26.55H148.157C147.737 28.63 146.797 30.26 145.337 31.44C143.877 32.62 142.077 33.21 139.937 33.21C138.277 33.21 136.797 32.86 135.497 32.16C134.217 31.46 133.217 30.46 132.497 29.16C131.777 27.86 131.417 26.33 131.417 24.57ZM161.13 33L156.48 26.1V33H150.6V10.8H156.48V22.77L161.13 16.17H168.18L161.55 24.63L168.3 33H161.13Z" fill="#783FC6"/>
<path d="M24.64 18.5C24.24 18.1 23.9732 18 23.6399 18C23.6399 18 22.64 20 23.14 20.5C23.64 21 25.6399 20 25.6399 20C25.4732 19.5 25.04 18.9 24.64 18.5Z" fill="#783FC6"/>
<defs>
<clipPath id="clip0_1087_437">
<rect width="19.03" height="15.7909" fill="white" transform="translate(0 9.92529) rotate(-15)"/>
</clipPath>
</defs>
</svg>
