<svg width="125" height="16" viewBox="0 0 125 16" fill="none" xmlns="http://www.w3.org/2000/svg">
<path d="M7.26 15L4.46 9.8H4.04V15H0.12V0.899999H6.3C7.43333 0.899999 8.39333 1.1 9.18 1.5C9.96667 1.88667 10.56 2.42667 10.96 3.12C11.36 3.8 11.56 4.56667 11.56 5.42C11.56 6.38 11.2933 7.22667 10.76 7.96C10.24 8.68 9.47333 9.19333 8.46 9.5L11.64 15H7.26ZM4.04 7.12H5.98C6.51333 7.12 6.91333 6.99333 7.18 6.74C7.44667 6.48667 7.58 6.12 7.58 5.64C7.58 5.18667 7.44 4.83333 7.16 4.58C6.89333 4.31333 6.5 4.18 5.98 4.18H4.04V7.12ZM24.0627 9.26C24.0627 9.56667 24.0427 9.87333 24.0027 10.18H16.5827C16.6227 10.7933 16.7893 11.2533 17.0827 11.56C17.3893 11.8533 17.776 12 18.2427 12C18.896 12 19.3627 11.7067 19.6427 11.12H23.8227C23.6493 11.8933 23.3093 12.5867 22.8027 13.2C22.3093 13.8 21.6827 14.2733 20.9227 14.62C20.1627 14.9667 19.3227 15.14 18.4027 15.14C17.296 15.14 16.3093 14.9067 15.4427 14.44C14.5893 13.9733 13.916 13.3067 13.4227 12.44C12.9427 11.5733 12.7027 10.5533 12.7027 9.38C12.7027 8.20667 12.9427 7.19333 13.4227 6.34C13.9027 5.47333 14.5693 4.80667 15.4227 4.34C16.2893 3.87333 17.2827 3.64 18.4027 3.64C19.5093 3.64 20.4893 3.86667 21.3427 4.32C22.196 4.77333 22.8627 5.42667 23.3427 6.28C23.8227 7.12 24.0627 8.11333 24.0627 9.26ZM20.0627 8.28C20.0627 7.8 19.9027 7.42667 19.5827 7.16C19.2627 6.88 18.8627 6.74 18.3827 6.74C17.9027 6.74 17.5093 6.87333 17.2027 7.14C16.896 7.39333 16.696 7.77333 16.6027 8.28H20.0627ZM33.0069 3.68C34.3002 3.68 35.3269 4.11333 36.0869 4.98C36.8469 5.83333 37.2269 6.99333 37.2269 8.46V15H33.3069V8.98C33.3069 8.34 33.1402 7.84 32.8069 7.48C32.4735 7.10667 32.0269 6.92 31.4669 6.92C30.8802 6.92 30.4202 7.10667 30.0869 7.48C29.7535 7.84 29.5869 8.34 29.5869 8.98V15H25.6669V3.78H29.5869V5.38C29.9335 4.87333 30.4002 4.46667 30.9869 4.16C31.5735 3.84 32.2469 3.68 33.0069 3.68ZM38.7378 9.38C38.7378 8.22 38.9445 7.20667 39.3578 6.34C39.7845 5.47333 40.3645 4.80667 41.0978 4.34C41.8311 3.87333 42.6445 3.64 43.5378 3.64C44.2578 3.64 44.8978 3.79333 45.4578 4.1C46.0311 4.39333 46.4778 4.8 46.7978 5.32V0.2H50.7378V15H46.7978V13.44C46.4911 13.96 46.0578 14.3733 45.4978 14.68C44.9378 14.9867 44.2778 15.14 43.5178 15.14C42.6245 15.14 41.8111 14.9067 41.0778 14.44C40.3578 13.9733 39.7845 13.3067 39.3578 12.44C38.9445 11.56 38.7378 10.54 38.7378 9.38ZM46.8178 9.38C46.8178 8.66 46.6178 8.09333 46.2178 7.68C45.8311 7.26667 45.3511 7.06 44.7778 7.06C44.1911 7.06 43.7045 7.26667 43.3178 7.68C42.9311 8.08 42.7378 8.64667 42.7378 9.38C42.7378 10.1 42.9311 10.6733 43.3178 11.1C43.7045 11.5133 44.1911 11.72 44.7778 11.72C45.3511 11.72 45.8311 11.5133 46.2178 11.1C46.6178 10.6867 46.8178 10.1133 46.8178 9.38ZM63.6916 9.26C63.6916 9.56667 63.6716 9.87333 63.6316 10.18H56.2116C56.2516 10.7933 56.4182 11.2533 56.7116 11.56C57.0182 11.8533 57.4049 12 57.8716 12C58.5249 12 58.9916 11.7067 59.2716 11.12H63.4516C63.2782 11.8933 62.9382 12.5867 62.4316 13.2C61.9382 13.8 61.3116 14.2733 60.5516 14.62C59.7916 14.9667 58.9516 15.14 58.0316 15.14C56.9249 15.14 55.9382 14.9067 55.0716 14.44C54.2182 13.9733 53.5449 13.3067 53.0516 12.44C52.5716 11.5733 52.3316 10.5533 52.3316 9.38C52.3316 8.20667 52.5716 7.19333 53.0516 6.34C53.5316 5.47333 54.1982 4.80667 55.0516 4.34C55.9182 3.87333 56.9116 3.64 58.0316 3.64C59.1382 3.64 60.1182 3.86667 60.9716 4.32C61.8249 4.77333 62.4916 5.42667 62.9716 6.28C63.4516 7.12 63.6916 8.11333 63.6916 9.26ZM59.6916 8.28C59.6916 7.8 59.5316 7.42667 59.2116 7.16C58.8916 6.88 58.4916 6.74 58.0116 6.74C57.5316 6.74 57.1382 6.87333 56.8316 7.14C56.5249 7.39333 56.3249 7.77333 56.2316 8.28H59.6916ZM69.2158 5.76C69.6558 5.12 70.1891 4.61333 70.8158 4.24C71.4424 3.86667 72.1158 3.68 72.8358 3.68V7.86H71.7358C70.8824 7.86 70.2491 8.02667 69.8358 8.36C69.4224 8.69333 69.2158 9.27333 69.2158 10.1V15H65.2958V3.78H69.2158V5.76ZM77.9611 11.74H82.7411V15H73.6411V11.9L78.1011 7.04H73.6811V3.78H82.5811V6.88L77.9611 11.74Z" fill="white"/>
<path d="M96.9978 0.899999V15H93.0778V9.34H88.2978V15H84.3778V0.899999H88.2978V6.2H93.0778V0.899999H96.9978ZM110.721 3.78V15H106.781V13.4C106.448 13.9067 105.988 14.32 105.401 14.64C104.814 14.9467 104.141 15.1 103.381 15.1C102.074 15.1 101.041 14.6733 100.281 13.82C99.5344 12.9533 99.1611 11.78 99.1611 10.3V3.78H103.061V9.8C103.061 10.44 103.228 10.9467 103.561 11.32C103.908 11.68 104.361 11.86 104.921 11.86C105.494 11.86 105.948 11.68 106.281 11.32C106.614 10.9467 106.781 10.44 106.781 9.8V3.78H110.721ZM116.872 5.34C117.179 4.80667 117.612 4.39333 118.172 4.1C118.732 3.79333 119.392 3.64 120.152 3.64C121.045 3.64 121.852 3.87333 122.572 4.34C123.305 4.80667 123.879 5.47333 124.292 6.34C124.719 7.20667 124.932 8.22 124.932 9.38C124.932 10.54 124.719 11.56 124.292 12.44C123.879 13.3067 123.305 13.9733 122.572 14.44C121.852 14.9067 121.045 15.14 120.152 15.14C119.392 15.14 118.732 14.9933 118.172 14.7C117.612 14.3933 117.179 13.9733 116.872 13.44V15H112.952V0.2H116.872V5.34ZM120.952 9.38C120.952 8.64667 120.752 8.08 120.352 7.68C119.965 7.26667 119.485 7.06 118.912 7.06C118.339 7.06 117.852 7.26667 117.452 7.68C117.065 8.09333 116.872 8.66 116.872 9.38C116.872 10.1133 117.065 10.6867 117.452 11.1C117.852 11.5133 118.339 11.72 118.912 11.72C119.485 11.72 119.965 11.5133 120.352 11.1C120.752 10.6733 120.952 10.1 120.952 9.38Z" fill="#783FC6"/>
</svg>
