<svg width="40" height="34" viewBox="0 0 40 34" fill="none" xmlns="http://www.w3.org/2000/svg">
<g clip-path="url(#clip0_258_59)">
<path d="M39.9048 21.3749C39.9048 27.5099 33.664 32.4822 25.9658 32.4822C25.7394 32.4822 25.513 32.4822 25.2885 32.4689C21.7925 33.1882 18.1865 33.1882 14.6905 32.4689C14.4736 32.4689 14.2548 32.4822 14.0341 32.4822C6.33588 32.4822 0.0950928 27.5099 0.0950928 21.3749C0.0961088 20.7134 0.169482 20.054 0.313902 19.4084C0.274136 19.0259 0.254446 18.6415 0.254917 18.257C0.254917 11.037 7.20159 5.01598 16.3744 3.74679C16.2107 2.61868 15.6535 1.5845 14.8009 0.826509C13.2426 -0.60988 18.8955 0.385714 21.9892 1.28631C28.9835 3.87979 30.5684 5.51567 33.1503 7.26366C37.1821 9.96544 39.7184 13.8889 39.7184 18.257C39.7184 18.6199 39.7012 18.979 39.667 19.3362C39.8236 20.0045 39.9033 20.6885 39.9048 21.3749Z" fill="#783FC6"/>
<path d="M35.9569 21.7796C36.0397 21.2938 36.0811 20.8018 36.0805 20.309C36.0805 16.0302 33.0134 12.5627 29.2309 12.5627C26.4549 12.5627 24.0651 14.4304 22.9882 17.1227C22.014 17.0467 21.0113 17.0068 19.9877 17.0068C18.964 17.0068 17.9804 17.0448 17.0157 17.1208C15.9407 14.4361 13.5509 12.5703 10.7749 12.5703C6.99239 12.5703 3.92527 16.0378 3.92527 20.3166C3.92477 20.7997 3.96423 21.282 4.04323 21.7587C3.26314 22.6213 2.83313 23.5618 2.83313 24.546C2.83313 28.7088 10.5142 32.0851 19.9877 32.0851C29.4611 32.0851 37.1422 28.7088 37.1422 24.546C37.1422 23.5637 36.7312 22.6384 35.9569 21.7796ZM10.7749 23.8145C9.84388 23.8145 8.95099 23.4451 8.29265 22.7877C7.63432 22.1303 7.26447 21.2387 7.26447 20.309C7.26378 20.0115 7.30151 19.7152 7.37673 19.4274C7.54178 18.7931 7.88161 18.2177 8.35764 17.7665C8.83367 17.3153 9.42682 17.0064 10.0698 16.8748C10.7127 16.7433 11.3798 16.7944 11.9951 17.0223C12.6105 17.2502 13.1495 17.6458 13.5511 18.1642C13.9526 18.6826 14.2006 19.3031 14.2668 19.9551C14.3331 20.6072 14.215 21.2647 13.9259 21.8531C13.6368 22.4415 13.1883 22.9371 12.6313 23.2838C12.0744 23.6305 11.4312 23.8144 10.7749 23.8145ZM29.2309 23.7081C28.5678 23.7095 27.9178 23.5235 27.3561 23.1716C26.7944 22.8196 26.344 22.316 26.0569 21.7191C25.7698 21.1222 25.6578 20.4563 25.7339 19.7985C25.8099 19.1407 26.0709 18.5178 26.4866 18.0019C26.9023 17.486 27.4558 17.0982 28.083 16.8832C28.7102 16.6683 29.3855 16.635 30.0309 16.7873C30.6762 16.9396 31.2652 17.2713 31.7297 17.7438C32.1942 18.2164 32.5152 18.8106 32.6557 19.4578C32.7096 19.7024 32.7364 19.9521 32.7356 20.2026C32.7356 21.1313 32.3666 22.0221 31.7095 22.6793C31.0524 23.3366 30.1609 23.7066 29.2309 23.7081Z" fill="white"/>
<path d="M16.3953 24.7074C16.3759 24.7163 16.3591 24.7301 16.3466 24.7474C16.334 24.7648 16.3263 24.7851 16.324 24.8063C16.3217 24.8276 16.3249 24.8491 16.3334 24.8687C16.3419 24.8883 16.3554 24.9054 16.3725 24.9183L20.2768 27.5782C20.3374 27.6085 20.4041 27.6243 20.4718 27.6243C20.5395 27.6243 20.6063 27.6085 20.6669 27.5782C20.8343 27.4851 23.0395 25.7486 23.6103 25.2983C23.6255 25.2859 23.6376 25.2701 23.6456 25.2522C23.6536 25.2343 23.6573 25.2148 23.6564 25.1952C23.6555 25.1756 23.6499 25.1565 23.6403 25.1394C23.6306 25.1223 23.6171 25.1078 23.6008 25.0969L21.8066 23.8999C21.603 23.7632 21.3649 23.6868 21.1197 23.6795L19.2779 23.6244C19.0906 23.6193 18.9045 23.6543 18.7318 23.727L16.3953 24.7074Z" fill="#783FC6"/>
</g>
<defs>
<clipPath id="clip0_258_59">
<rect width="40" height="33.1034" fill="white"/>
</clipPath>
</defs>
</svg>
